<?xml version="1.0" encoding="UTF-8"?>
<!DOCTYPE svg PUBLIC "-//W3C//DTD SVG 1.0//EN" "http://www.w3.org/TR/2001/REC-SVG-20010904/DTD/svg10.dtd">
<!-- Creator: CorelDRAW X8 -->
<svg xmlns="http://www.w3.org/2000/svg" xml:space="preserve" width="800mm" height="1510mm" version="1.0" style="shape-rendering:geometricPrecision; text-rendering:geometricPrecision; image-rendering:optimizeQuality; fill-rule:evenodd; clip-rule:evenodd"
viewBox="0 0 80000 151000"
 xmlns:xlink="http://www.w3.org/1999/xlink">
 <defs>
  <style type="text/css">
   <![CDATA[
    .fil1 {fill:#FEFEFE;fill-rule:nonzero}
    .fil0 {fill:#434343;fill-rule:nonzero}
   ]]>
  </style>
 </defs>
 <g id="Capa_x0020_1">
  <metadata id="CorelCorpID_0Corel-Layer"/>
  <path class="fil0" d="M1789 137488c-9,6546 5615,11860 12559,11870l51095 72c6944,10 12582,-5287 12591,-11834l177 -124083c10,-6546 -5614,-11860 -12558,-11871l-51095 -72c-6944,-10 -12583,5288 -12593,11835l-176 124083z"/>
  <polygon class="fil0" points="4954,132438 74884,132538 75049,16318 5119,16218 "/>
  <path class="fil1" d="M30028 9915c-1,1002 717,1815 1600,1816l15805 23c885,1 1605,-809 1606,-1812 1,-1004 -716,-1818 -1601,-1819l-15805 -22c-883,-1 -1603,810 -1605,1814z"/>
  <path class="fil1" d="M59448 10188c-1,967 801,1752 1790,1753 990,3 1794,-781 1796,-1748 1,-968 -801,-1750 -1791,-1753 -989,-1 -1793,780 -1795,1748z"/>
  <polygon class="fil1" points="4954,132438 74884,132538 75049,16318 5119,16218 "/>
  <path class="fil1" d="M44951 140739c-2,3361 -2727,6084 -6088,6082 -3361,-1 -6085,-2727 -6083,-6087 2,-3361 2727,-6085 6088,-6083 3361,1 6084,2727 6083,6088z"/>
 </g>
</svg>
